<svg width="32" height="32" fill="none" xmlns="http://www.w3.org/2000/svg"><path fill-rule="evenodd" clip-rule="evenodd" d="M9.014 22.359c1.578 0 2.366-.79 2.366-3.38V6.245h4.17v13.07c0 3.719-1.916 6.874-5.973 6.874-2.816 0-4.732-1.127-5.971-3.493l2.817-2.254c.676 1.352 1.69 1.916 2.591 1.916zm21.747-10.254c0 2.48-1.24 4.507-3.38 5.409L32 25.852h-4.62L23.1 18.19h-1.014v7.662h-4.057V6.246H24c2.028 0 3.606.45 4.733 1.352.9.676 2.028 2.028 2.028 4.507zm-8.676-1.915v4.169h1.69c1.127 0 1.915-.226 2.366-.564.338-.225.563-.788.563-1.577 0-1.127-.225-2.028-2.93-2.028h-1.69z" fill="#353535"/><path fill-rule="evenodd" clip-rule="evenodd" d="M11.268 14.922H0s-.225-10.93 11.268-8.676v8.676z" fill="#FFE22E"/><path fill-rule="evenodd" clip-rule="evenodd" d="M13.634 10.64a2.371 2.371 0 01-2.592 2.367c-1.352 0-2.366-1.127-2.366-2.367a2.582 2.582 0 012.366-2.591c1.353-.113 2.48 1.014 2.592 2.366v.225z" fill="#FEFEFD"/><path fill-rule="evenodd" clip-rule="evenodd" d="M12.282 10.64c0 .676-.45 1.24-1.127 1.24-.676 0-1.24-.45-1.24-1.127v-.113c0-.676.564-1.24 1.24-1.126.676 0 1.127.45 1.127 1.126z" fill="#353535"/></svg>